# xmcd CD database file
#
# Track frame offsets:
#	150
#	9576
#	24177
#	42426
#	57355
#	71157
#	84327
#	105312
#	118737
#	137117
#	168158
#
# Disc length: 2468 seconds
#
# Revision: 11
# Processed by: cddbd v1.5.2PL0 Copyright (c) Steve Scherf et al.
# Submitted via: CDex 1.60beta1
#
DISCID=8809a20b
DTITLE=Divokej Bill - Mezi nima
DYEAR=2003
DGENRE=Rock
TTITLE0=Bagdad
TTITLE1=Pocit
TTITLE2=Znameni
TTITLE3=Malovani
TTITLE4=Kvuli holkam
TTITLE5=Vokna
TTITLE6=Armada
TTITLE7=Mrazik
TTITLE8=Kolem tebe
TTITLE9=Kotle
TTITLE10=Na tvy louce zeleny
EXTD=YEAR: 2003
EXTT0=
EXTT1=
EXTT2=
EXTT3=
EXTT4=
EXTT5=
EXTT6=
EXTT7=
EXTT8=
EXTT9=
EXTT10=
PLAYORDER=
